<svg width="32" height="32" viewBox="64 64 384 384" fill="none" xmlns="http://www.w3.org/2000/svg">
  <path
    d="M389.857 288.162L342.368 260.773L292.142 289.753C278.28 297.748 273.536 315.448 281.537 329.299C286.906 338.587 296.648 343.774 306.658 343.774C311.566 343.774 316.548 342.526 321.114 339.895L402.901 292.71C398.335 292.012 393.903 290.496 389.857 288.162Z"
    fill="white" />
  <path
    d="M422.861 231.05L321.114 172.347C316.548 169.717 311.566 168.468 306.658 168.468C296.648 168.468 286.906 173.655 281.537 182.943C273.535 196.794 278.28 214.494 292.142 222.489L393.888 281.192C398.454 283.823 403.436 285.071 408.345 285.071C418.354 285.071 428.096 279.884 433.465 270.596C441.467 256.745 436.722 239.045 422.861 231.05Z"
    fill="white" />
  <path
    d="M219.963 289.739L118.217 231.036C113.651 228.406 108.669 227.157 103.761 227.157C93.751 227.157 84.0093 232.359 78.6401 241.632C70.6384 255.483 75.3829 273.183 89.2446 281.179L190.991 339.881C195.557 342.512 200.539 343.76 205.447 343.76C215.457 343.76 225.199 338.573 230.568 329.285C238.555 315.449 233.81 297.734 219.963 289.739Z"
    fill="white" />
  <path
    d="M122.234 224.065L169.723 251.455L219.95 222.475C233.811 214.48 238.556 196.78 230.554 182.929C222.552 169.078 204.839 164.337 190.977 172.333L109.19 219.518C113.771 220.216 118.203 221.747 122.234 224.065Z"
    fill="white" />
</svg>